<svg xmlns="http://www.w3.org/2000/svg" width="520" height="320" viewBox="0 0 520 320">
  <defs>
    <linearGradient id="bg" x1="0" x2="1" y1="0" y2="1">
      <stop offset="0%" stop-color="#111214"/>
      <stop offset="100%" stop-color="#181b22"/>
    </linearGradient>
  </defs>
  <rect width="520" height="320" rx="28" fill="url(#bg)"/>
  <rect x="24" y="24" width="472" height="272" rx="24" fill="#f7f7f7"/>
  <rect x="40" y="40" width="78" height="78" rx="20" fill="#2096ff"/>
  <text x="79" y="88" text-anchor="middle" font-family="Arial, sans-serif" font-size="32" fill="#041018">KP</text>
  <text x="138" y="72" font-family="Arial, sans-serif" font-size="30" font-weight="700" fill="#111">Kyly Picking</text>
  <text x="138" y="106" font-family="Arial, sans-serif" font-size="18" fill="#555">Cracha de acesso operador</text>
  <text x="40" y="160" font-family="Arial, sans-serif" font-size="18" fill="#666">Usuario demo</text>
  <text x="40" y="194" font-family="Arial, sans-serif" font-size="28" font-weight="700" fill="#111">operator</text>
  <g transform="translate(30 185)">
      <rect width="473" height="170" fill="#ffffff" rx="18"/>
  <text x="236.5" y="18" text-anchor="middle" font-family="Arial, sans-serif" font-size="13" fill="#444">Cracha Operador</text>
  <rect x="28" y="26" width="3" height="96" fill="#050505" rx="1" /><rect x="38" y="26" width="3" height="96" fill="#050505" rx="1" /><rect x="44" y="26" width="7" height="96" fill="#050505" rx="1" /><rect x="54" y="26" width="7" height="96" fill="#050505" rx="1" /><rect x="64" y="26" width="3" height="96" fill="#050505" rx="1" /><rect x="70" y="26" width="7" height="96" fill="#050505" rx="1" /><rect x="80" y="26" width="3" height="96" fill="#050505" rx="1" /><rect x="86" y="26" width="7" height="96" fill="#050505" rx="1" /><rect x="96" y="26" width="3" height="96" fill="#050505" rx="1" /><rect x="106" y="26" width="3" height="96" fill="#050505" rx="1" /><rect x="112" y="26" width="3" height="96" fill="#050505" rx="1" /><rect x="118" y="26" width="7" height="96" fill="#050505" rx="1" /><rect x="128" y="26" width="7" height="96" fill="#050505" rx="1" /><rect x="138" y="26" width="3" height="96" fill="#050505" rx="1" /><rect x="148" y="26" width="3" height="96" fill="#050505" rx="1" /><rect x="154" y="26" width="7" height="96" fill="#050505" rx="1" /><rect x="164" y="26" width="3" height="96" fill="#050505" rx="1" /><rect x="170" y="26" width="7" height="96" fill="#050505" rx="1" /><rect x="184" y="26" width="3" height="96" fill="#050505" rx="1" /><rect x="190" y="26" width="3" height="96" fill="#050505" rx="1" /><rect x="196" y="26" width="7" height="96" fill="#050505" rx="1" /><rect x="206" y="26" width="3" height="96" fill="#050505" rx="1" /><rect x="212" y="26" width="3" height="96" fill="#050505" rx="1" /><rect x="218" y="26" width="7" height="96" fill="#050505" rx="1" /><rect x="232" y="26" width="3" height="96" fill="#050505" rx="1" /><rect x="238" y="26" width="7" height="96" fill="#050505" rx="1" /><rect x="248" y="26" width="3" height="96" fill="#050505" rx="1" /><rect x="254" y="26" width="3" height="96" fill="#050505" rx="1" /><rect x="264" y="26" width="3" height="96" fill="#050505" rx="1" /><rect x="270" y="26" width="7" height="96" fill="#050505" rx="1" /><rect x="280" y="26" width="3" height="96" fill="#050505" rx="1" /><rect x="286" y="26" width="3" height="96" fill="#050505" rx="1" /><rect x="292" y="26" width="7" height="96" fill="#050505" rx="1" /><rect x="302" y="26" width="7" height="96" fill="#050505" rx="1" /><rect x="316" y="26" width="3" height="96" fill="#050505" rx="1" /><rect x="322" y="26" width="7" height="96" fill="#050505" rx="1" /><rect x="332" y="26" width="3" height="96" fill="#050505" rx="1" /><rect x="338" y="26" width="7" height="96" fill="#050505" rx="1" /><rect x="348" y="26" width="3" height="96" fill="#050505" rx="1" /><rect x="358" y="26" width="3" height="96" fill="#050505" rx="1" /><rect x="364" y="26" width="7" height="96" fill="#050505" rx="1" /><rect x="374" y="26" width="3" height="96" fill="#050505" rx="1" /><rect x="380" y="26" width="3" height="96" fill="#050505" rx="1" /><rect x="386" y="26" width="7" height="96" fill="#050505" rx="1" /><rect x="400" y="26" width="3" height="96" fill="#050505" rx="1" /><rect x="406" y="26" width="3" height="96" fill="#050505" rx="1" /><rect x="416" y="26" width="3" height="96" fill="#050505" rx="1" /><rect x="422" y="26" width="7" height="96" fill="#050505" rx="1" /><rect x="432" y="26" width="7" height="96" fill="#050505" rx="1" /><rect x="442" y="26" width="3" height="96" fill="#050505" rx="1" />
  <text x="236.5" y="152" text-anchor="middle" font-family="Courier New, monospace" font-size="24" letter-spacing="4" fill="#111">OPERATOR</text>

  </g>
</svg>
