<svg xmlns="http://www.w3.org/2000/svg" width="389" height="194" viewBox="0 0 389 194">
  <rect width="389" height="194" fill="#ffffff" rx="18"/>
  <text x="194.5" y="18" text-anchor="middle" font-family="Arial, sans-serif" font-size="13" fill="#444">Codigo de barras SKU001</text>
  <rect x="28" y="26" width="3" height="120" fill="#050505" rx="1" /><rect x="38" y="26" width="3" height="120" fill="#050505" rx="1" /><rect x="44" y="26" width="7" height="120" fill="#050505" rx="1" /><rect x="54" y="26" width="7" height="120" fill="#050505" rx="1" /><rect x="64" y="26" width="3" height="120" fill="#050505" rx="1" /><rect x="70" y="26" width="3" height="120" fill="#050505" rx="1" /><rect x="76" y="26" width="7" height="120" fill="#050505" rx="1" /><rect x="86" y="26" width="3" height="120" fill="#050505" rx="1" /><rect x="92" y="26" width="7" height="120" fill="#050505" rx="1" /><rect x="106" y="26" width="3" height="120" fill="#050505" rx="1" /><rect x="112" y="26" width="7" height="120" fill="#050505" rx="1" /><rect x="122" y="26" width="3" height="120" fill="#050505" rx="1" /><rect x="128" y="26" width="3" height="120" fill="#050505" rx="1" /><rect x="134" y="26" width="3" height="120" fill="#050505" rx="1" /><rect x="144" y="26" width="7" height="120" fill="#050505" rx="1" /><rect x="154" y="26" width="7" height="120" fill="#050505" rx="1" /><rect x="168" y="26" width="3" height="120" fill="#050505" rx="1" /><rect x="174" y="26" width="3" height="120" fill="#050505" rx="1" /><rect x="180" y="26" width="3" height="120" fill="#050505" rx="1" /><rect x="186" y="26" width="7" height="120" fill="#050505" rx="1" /><rect x="196" y="26" width="3" height="120" fill="#050505" rx="1" /><rect x="202" y="26" width="3" height="120" fill="#050505" rx="1" /><rect x="212" y="26" width="7" height="120" fill="#050505" rx="1" /><rect x="222" y="26" width="7" height="120" fill="#050505" rx="1" /><rect x="232" y="26" width="3" height="120" fill="#050505" rx="1" /><rect x="238" y="26" width="3" height="120" fill="#050505" rx="1" /><rect x="244" y="26" width="3" height="120" fill="#050505" rx="1" /><rect x="254" y="26" width="7" height="120" fill="#050505" rx="1" /><rect x="264" y="26" width="7" height="120" fill="#050505" rx="1" /><rect x="274" y="26" width="3" height="120" fill="#050505" rx="1" /><rect x="280" y="26" width="7" height="120" fill="#050505" rx="1" /><rect x="290" y="26" width="3" height="120" fill="#050505" rx="1" /><rect x="300" y="26" width="3" height="120" fill="#050505" rx="1" /><rect x="306" y="26" width="3" height="120" fill="#050505" rx="1" /><rect x="312" y="26" width="7" height="120" fill="#050505" rx="1" /><rect x="322" y="26" width="3" height="120" fill="#050505" rx="1" /><rect x="332" y="26" width="3" height="120" fill="#050505" rx="1" /><rect x="338" y="26" width="7" height="120" fill="#050505" rx="1" /><rect x="348" y="26" width="7" height="120" fill="#050505" rx="1" /><rect x="358" y="26" width="3" height="120" fill="#050505" rx="1" />
  <text x="194.5" y="176" text-anchor="middle" font-family="Courier New, monospace" font-size="24" letter-spacing="4" fill="#111">SKU001</text>
</svg>
